<?xml version="1.0" encoding="UTF-8"?>
<svg id="Layer_2" data-name="Layer 2" xmlns="http://www.w3.org/2000/svg" viewBox="0 0 617.34 288.82">
  <defs>
    <style>
      .cls-1 {
        fill: none;
      }

      .cls-2 {
        fill: #177245;
      }

      .cls-3 {
        fill: #ce2029;
      }

      .cls-4 {
        fill: #afdbf5;
      }

      .cls-5 {
        fill: #ff5800;
      }
    </style>
  </defs>
  <g id="Layer_1-2" data-name="Layer 1">
    <g>
      <polygon class="cls-1" points="522.95 26.44 533.31 4.48 534.12 2.76 511.78 2.76 512.59 4.48 522.95 26.44"/>
      <polygon class="cls-1" points="335.38 60.38 335.38 60.38 335.38 60.38 335.38 60.38"/>
      <rect class="cls-1" x="338.98" y="261.23" width="18.87" height="20.51"/>
      <polygon class="cls-1" points="269.91 121.81 269.91 121.81 269.9 121.8 269.91 121.81"/>
      <polygon class="cls-1" points="335.32 60.16 335.32 60.16 335.32 60.16 335.32 60.16"/>
      <polygon class="cls-1" points="335.54 61.06 335.54 61.06 335.54 61.06 335.54 61.06"/>
      <polygon class="cls-1" points="335.52 60.97 335.52 60.97 335.52 60.97 335.52 60.97"/>
      <polygon class="cls-1" points="335.43 60.61 335.43 60.61 335.43 60.61 335.43 60.61"/>
      <polygon class="cls-1" points="328.17 68.41 328.18 68.41 328.18 68.41 328.17 68.41"/>
      <polygon class="cls-1" points="333.88 61.27 333.88 61.27 333.88 61.27 333.88 61.27"/>
      <polygon class="cls-1" points="328.13 73.59 328.14 73.58 328.13 73.57 328.13 73.59"/>
      <polygon class="cls-1" points="314.37 111.52 314.37 111.52 314.37 111.52 314.37 111.52"/>
      <path class="cls-1" d="M263.47,133.52h88.46V44.05h-88.46v89.47ZM267.76,113.15c.05.19.1.38.17.56,1.03.68,1.93,1.22,2.98,1.78-.85-1.52-1.06-3.21-.98-4.37-.6-1.13-.19-1.94.11-2.22.33-.3.77-.36,1.21-.16.6.28,1.2,1.09,1.16,2.09-.01.42-.16.75-.42,1,.04.42.05.85.07,1.26.06.69.07.82.13,1.21v.05s0,0,0,0c.11.57.27,1.41.61,2.11l3.2,1.31c-1.02-1.41-1.44-3.13-1.47-4.38-.69-1.03-.41-1.9-.12-2.25.31-.38.75-.5,1.23-.35.62.2,1.28.92,1.34,1.92.03.43-.08.79-.31,1.08.08.41.14.85.2,1.28q.11.61.26,1.23v.03c.18.57.43,1.41.83,2.07l3.38.82c-1.19-1.29-1.79-3.01-1.96-4.31-.82-.96-.62-1.95-.28-2.39.3-.38.74-.52,1.21-.4.7.18,1.3.89,1.44,1.73.11.65-.11,1.03-.23,1.2.11.36.22.76.36,1.24.23.79.25.85.38,1.22l.02.07c.29.8.64,1.48,1.02,1.97l3.49.33c-.33-.28-.63-.6-.91-.95-.53-.67-1.21-2.05-1.52-3.23-.89-.86-.8-1.88-.51-2.36.26-.44.69-.65,1.2-.58.71.1,1.36.73,1.59,1.55.17.6.02,1.01-.08,1.21.17.42.32.86.47,1.28q.23.59.51,1.2v.03c.3.54.71,1.34,1.24,1.91h.11s.07.19.07.19v-.19s.07.26.07.26v-.26s.07.26.07.26v-.26s.06,0,.06,0l.1.25v-.26s.09.25.09.25v-.26s.11.25.11.25v-.26s.1.25.1.25v-.26s.07.25.07.25h0v-.26s.1.25.1.25v-.02s-.07-.24-.07-.24h.06s0,0,0,0h.07s.39-.03.39-.03h0c.72-.01,1.44-.06,2.17-.12-1.46-.99-2.44-2.63-2.88-3.94-1-.75-1.02-1.82-.78-2.36.22-.49.63-.77,1.17-.76.72.02,1.41.57,1.72,1.37.25.64.1,1.1.03,1.3.18.34.38.73.61,1.19.09.18.23.47.61,1.13l.03.04c.47.8.95,1.4,1.42,1.81,1.2-.17,2.4-.39,3.59-.67-.4-.2-.78-.46-1.15-.77-.61-.51-1.62-1.8-2.18-2.93-1.04-.64-1.17-1.7-.99-2.27.17-.53.59-.88,1.12-.92.72-.06,1.45.41,1.83,1.17.29.58.23,1.04.17,1.27.26.39.5.8.73,1.19.4.62.48.75.74,1.1l.03.06c.53.71,1.07,1.26,1.58,1.62,1.19-.33,2.39-.72,3.56-1.16-1.69-.64-3.02-2.1-3.72-3.34-1.13-.51-1.37-1.58-1.25-2.19.11-.58.51-.98,1.06-1.08.7-.13,1.47.26,1.93.96.36.56.34,1.04.3,1.27.29.36.58.76.85,1.13.14.18.41.51.84,1l.04.03c.63.7,1.22,1.2,1.76,1.5,1.17-.5,2.34-1.06,3.48-1.66-1.73-.44-3.22-1.76-4.07-2.94-1.2-.37-1.56-1.43-1.5-2.08.06-.61.42-1.08.98-1.24.69-.21,1.48.09,2,.75.42.52.44,1.02.43,1.26.35.35.68.71.97,1.04.5.51.64.65.96.94l.04.05c.67.6,1.31,1.03,1.88,1.27,1.13-.66,2.25-1.38,3.32-2.14-1.79-.23-3.41-1.4-4.38-2.5-1.23-.23-1.7-1.26-1.71-1.92,0-.64.32-1.16.87-1.39.66-.28,1.47-.07,2.05.52.47.48.55.98.57,1.23.38.31.75.64,1.08.94q.53.44,1.07.84l.03.02c.59.39,1.32.87,2.03,1.08,1.07-.82,2.12-1.7,3.12-2.62-1.84,0-3.59-1-4.67-2-1.25-.09-1.81-1.07-1.89-1.73-.08-.66.21-1.24.76-1.54.63-.35,1.45-.23,2.08.29.56.46.67.99.7,1.23.35.22.73.48,1.16.76.2.14.44.3,1.11.71l.05.02c.82.47,1.54.76,2.15.87,1-1,1.98-2.05,2.9-3.14-2,.27-3.94-.65-4.96-1.41-.03,0-.05,0-.08,0-1.17,0-1.8-.9-1.94-1.53-.15-.66.09-1.28.63-1.65.6-.42,1.42-.41,2.08.02.57.37.75.86.82,1.11.44.22.88.46,1.26.68q.57.3,1.23.59l.04.02c.85.36,1.6.56,2.21.59.18-.23.35-.46.53-.69h0c.27-.36.53-.72.79-1.08-.2-.49-.59-1.07-1.24-1.88l-.02-.02q-.45-.48-.96-.98c-.31-.28-.69-.61-1.04-.97-.02,0-.04,0-.07,0-1.09,0-1.69-.79-1.87-1.28-.25-.66-.1-1.32.38-1.77.52-.48,1.32-.58,2.04-.24.56.26.92.71,1.07,1.32,1.02.76,2.51,2.21,2.87,4.1.78-1.18,1.51-2.4,2.18-3.63-.26-.51-.73-1.07-1.46-1.72l-.04-.03c-.3-.27-.4-.35-1.05-.86-.35-.25-.77-.54-1.15-.85-1.11.15-1.81-.59-2.06-1.06-.32-.62-.26-1.3.16-1.79.46-.54,1.22-.71,1.97-.44.58.2.99.6,1.22,1.18,1.18.7,2.76,2.01,3.33,3.76.61-1.24,1.18-2.5,1.68-3.77-.32-.49-.86-1-1.67-1.57l-.05-.04c-.64-.44-.91-.59-1.1-.71-.46-.28-.85-.52-1.19-.74-1.2.32-2.03-.49-2.3-.96-.32-.57-.29-1.2.08-1.68.4-.54,1.11-.77,1.84-.6.6.14,1.05.49,1.34,1.05,1.16.53,2.93,1.63,3.73,3.36.44-1.27.84-2.56,1.18-3.85-.39-.47-.98-.92-1.83-1.4q-.59-.32-1.23-.63c-.4-.17-.87-.37-1.3-.59-1.13.39-2.01-.3-2.32-.73-.38-.53-.43-1.15-.13-1.67.33-.57,1.01-.86,1.74-.77.61.08,1.09.38,1.44.89,1.29.44,3.11,1.39,4.08,2.94.28-1.29.52-2.59.69-3.88-.44-.43-1.08-.82-1.97-1.2-.57-.25-1.16-.46-1.28-.5-.5-.18-.93-.33-1.31-.48-1.08.54-2.05-.06-2.42-.46-.45-.48-.57-1.1-.32-1.64.27-.59.91-.93,1.63-.92.61.02,1.12.26,1.53.74,1.23.28,3.17.98,4.36,2.48.12-1.29.19-2.58.21-3.85-.46-.33-1.12-.65-2.1-1.01h0c-.64-.19-.66-.19-1.31-.36-.43-.09-.92-.19-1.38-.31-.98.59-1.99.11-2.4-.24-.5-.43-.7-1.02-.51-1.59.2-.6.77-1.01,1.5-1.06.6-.05,1.13.14,1.59.57,1.33.16,3.29.71,4.58,2-.04-1.27-.12-2.54-.26-3.78-.53-.33-1.21-.58-2.14-.77h0s-.05,0-.05,0c-.42-.09-.57-.12-1.31-.23-.44-.05-.94-.1-1.42-.18-.9.67-1.95.31-2.39,0-.55-.37-.82-.96-.7-1.53.13-.6.64-1.05,1.35-1.18.59-.11,1.14.03,1.64.4,1.27.03,3.28.34,4.74,1.51-.13-.82-.28-1.64-.45-2.44l.23-.14h0s-.25.06-.25.06h0s-.27-1.14-.27-1.14c-.53-.26-1.26-.44-2.24-.55h-.06c-.5-.06-.53-.06-1.29-.09-.51-.02-.97-.04-1.36-.07-.8.79-1.91.53-2.39.28-.6-.31-.94-.87-.88-1.45.06-.59.51-1.08,1.18-1.27.57-.16,1.14-.08,1.69.24,1.2-.08,3.19.01,4.79,1.01l-1.08-3.27-.08-.2c-.51-.17-1.23-.28-2.27-.33h-.03c-.4,0-.45,0-1.32.04-.45.04-.93.09-1.38.11-.69.8-1.79.67-2.28.47-.65-.25-1.05-.77-1.05-1.36,0-.57.38-1.08,1-1.33.54-.22,1.11-.19,1.7.06,1.06-.17,3.06-.33,4.82.5l-1.51-3.08-.1-.17c-.28-.07-1.04-.2-2.29-.09h-.04s-.01,0-.01,0c-.49.05-.52.05-1.26.17-.49.08-.93.14-1.31.2-.36.56-1,.81-1.62.81-.26,0-.52-.04-.75-.12-.63-.22-1.05-.7-1.09-1.25-.04-.48.22-.91.67-1.21h10.75c-.46.3-.8.6-1.03.89l1.78,3.54c.76-1.53,2.42-2.26,3.17-2.52.08-.23.26-.6.75-.76.64-.21,1.83.07,2.49,1.34.05.12.1.25.13.35.16.58.02,1.12-.37,1.43-.22.18-.49.26-.79.26s-.61-.09-.93-.25c-.34.15-.72.28-1.12.41-.73.29-.79.32-1.03.44l-.05.02c-.58.32-1.16.66-1.52,1.01l1.28,3.74c.97-1.51,2.75-2.08,3.56-2.27.1-.22.33-.58.86-.7.67-.16,1.84.24,2.33,1.6.03.1.04.15.05.19.15.66-.05,1.26-.52,1.58-.21.14-.45.21-.72.21-.35,0-.72-.13-1.1-.37-.3.1-.67.21-1.12.34-.54.16-.63.18-1.08.33l-.06.03c-.76.27-1.34.57-1.72.89h0s-.06.05-.06.05c-.02.02-.05.04-.07.06v-.02s-.09.04-.09.04h0s.24-.05.24-.05l-.23.13s0,0,0,0l.25-.06.07.28-.24.12h.26s.01.07.01.07l-.23.16.25-.06.05.21-.23.15h0s.25-.06.25-.06l.05.27c.19.84.36,1.74.5,2.65.98-1.21,2.51-1.82,3.89-2,.13-.21.41-.56.95-.64.71-.11,1.84.4,2.15,1.83l.03.2c.06.69-.23,1.28-.75,1.55-.19.1-.39.14-.6.14-.37,0-.77-.15-1.14-.44-.36.08-.78.15-1.24.22-.63.12-.83.16-1.17.26h-.05s-.01.01-.01.01c-.79.2-1.4.46-1.82.75.15,1.33.25,2.69.29,4.04,1.37-1.34,3.34-1.6,4.19-1.65.16-.2.49-.53,1.04-.56.71-.03,1.81.57,1.95,2.05v.07s0,.09,0,.13c-.03.71-.4,1.28-.97,1.49-.15.06-.32.09-.48.09-.42,0-.84-.19-1.22-.55-.4.06-.83.08-1.28.11q-.52.06-1.22.16h-.03s0,0,0,0c-.86.19-1.51.37-1.96.6-.01,1.36-.09,2.74-.22,4.1,1.55-1.23,3.57-1.31,4.44-1.28.19-.18.57-.48,1.12-.47.41.01.84.22,1.15.56.28.29.6.83.57,1.68v.07s-.02.1-.02.14c-.12.73-.58,1.28-1.2,1.43-.11.03-.23.04-.34.04-.47,0-.93-.25-1.31-.71-.35.02-.76.02-1.26.03-.02,0-.67,0-1.26.05h-.04s-.04,0-.04,0c-.82.06-1.52.21-2.03.43-.18,1.37-.42,2.75-.72,4.1,1.69-1.09,3.69-1,4.63-.88.2-.16.61-.44,1.18-.37.41.05.82.3,1.1.66.24.32.5.88.37,1.73-.21.85-.75,1.43-1.42,1.53-.07.01-.15.02-.22.02-.51,0-.99-.29-1.34-.79-.42-.02-.86-.07-1.32-.13q-.54-.04-1.27-.07h-.06c-.85-.02-1.57.06-2.11.23-.35,1.36-.77,2.73-1.24,4.07,1.86-.93,3.9-.65,4.78-.46.22-.15.67-.39,1.24-.27.41.09.8.37,1.03.76.21.34.41.93.16,1.79-.32.85-.95,1.38-1.66,1.41-.02,0-.04,0-.05,0-.58,0-1.09-.36-1.41-.96-.35-.05-.77-.12-1.28-.2-.2-.04-.42-.08-1.23-.19h-.06c-.91-.1-1.66-.09-2.23.03-.53,1.34-1.12,2.67-1.75,3.96,1.97-.75,3.96-.3,4.88-.01.24-.13.72-.33,1.29-.16.4.12.76.44.95.86.17.36.3.97-.05,1.8-.41.79-1.08,1.26-1.76,1.26-.04,0-.08,0-.12,0-.58-.05-1.05-.44-1.3-1.05-.4-.09-.82-.21-1.3-.36-.7-.18-.9-.23-1.26-.3h-.06c-.9-.19-1.64-.25-2.22-.18-.7,1.29-1.46,2.56-2.27,3.79,2.15-.58,4.18.13,4.93.44.26-.11.77-.27,1.32-.05.39.16.71.5.86.93.13.38.19,1.01-.27,1.82-.48.69-1.14,1.09-1.78,1.09-.1,0-.2,0-.31-.03-.57-.11-.97-.54-1.15-1.16-.39-.12-.81-.29-1.27-.48q-.52-.19-1.24-.42h0c-.99-.25-1.69-.39-2.26-.39h0c-.22.31-.45.62-.68.92h0s-.16.21-.16.21c0,0,0,0,0,.01l-.14.19h0c-.13.17-.26.34-.39.51.19.59.53,1.23,1.05,1.95l.02.03q.48.63.81,1.02c.28.3.59.64.85.99.23-.02.62-.01.99.21.35.21.61.59.69,1.02.07.39.04,1-.54,1.72-.1.1-.21.22-.3.29-.42.34-.92.52-1.39.52-.29,0-.57-.07-.82-.21-.52-.29-.78-.84-.72-1.51-.93-1.03-1.65-2.64-1.65-2.65-.15-.43-.3-1.04-.33-1.76-.24.29-.48.57-.73.85h.03s-.04.01-.04.01c-.73.82-1.49,1.62-2.26,2.39.12.56.41,1.23.87,2.01l.03.06c.44.69.56.85.67,1.01.28.4.51.75.71,1.06.23,0,.64.04,1.01.31.34.25.56.65.6,1.09.03.38-.07.96-.71,1.57-.11.09-.23.19-.33.25-.37.23-.79.35-1.19.35s-.75-.11-1.04-.32c-.47-.34-.67-.88-.56-1.51-.81-1.07-1.36-2.64-1.41-2.9-.11-.54-.15-1.07-.12-1.58-.25.23-.5.46-.76.69h.17s-.24.06-.24.06c-.8.7-1.62,1.37-2.45,2.02.07.53.3,1.17.66,2.01v.02q.33.64.6,1.11c.22.34.45.72.65,1.1.23.04.6.13.93.41.32.28.5.7.49,1.14-.01.36-.17.9-.85,1.41-.12.07-.25.15-.36.2-.31.14-.64.21-.96.21-.49,0-.95-.16-1.28-.46-.41-.38-.55-.91-.39-1.48-.7-1.12-1.1-2.7-1.13-2.95-.06-.54-.04-1.05.04-1.55-1.14.81-2.31,1.57-3.51,2.28,0,.54.16,1.21.47,2.02.12.32.2.52.48,1.14.19.37.39.76.54,1.13.22.06.58.19.88.5.31.32.45.74.39,1.16-.05.35-.26.85-.99,1.26-.12.06-.26.12-.37.15-.24.08-.48.11-.72.11-.6,0-1.16-.23-1.52-.66-.34-.41-.41-.94-.21-1.42-.59-1.15-.83-2.68-.83-2.88,0-.56.06-1.08.19-1.56-1.21.64-2.44,1.24-3.68,1.77-.04.51.04,1.16.27,1.98l.02.06h0c.19.64.3.97.35,1.09.15.38.31.77.43,1.15.21.08.56.25.82.58.28.35.38.78.28,1.17-.09.33-.34.78-1.1,1.09l-.19.06c-.2.05-.41.08-.61.08-.69,0-1.35-.29-1.72-.78-.31-.43-.35-.94-.09-1.42-.45-1.11-.58-2.6-.52-3.12.05-.44.15-.84.3-1.23-1.25.47-2.52.9-3.79,1.26-.09.49-.07,1.13.08,1.92.06.36.11.55.26,1.15.11.36.23.76.32,1.15.2.1.53.3.76.65.25.37.31.79.17,1.16-.12.31-.42.71-1.2.92l-.2.03c-.1.01-.2.02-.31.02-.81,0-1.62-.41-1.96-1.02-.24-.44-.21-.92.08-1.33-.34-1.12-.35-2.51-.23-3.04.09-.41.23-.79.42-1.14-1.28.3-2.57.55-3.86.74-.14.48-.17,1.08-.1,1.83v.07s0,0,0,0c.08.67.12.88.14,1.04.07.43.13.8.16,1.11.19.12.52.35.74.74.21.39.23.8.06,1.14-.14.28-.48.64-1.28.73h-.08s-.08,0-.12,0h0c-.94,0-1.87-.56-2.16-1.29-.17-.43-.09-.87.22-1.22-.23-1.12-.1-2.45.05-2.92.13-.38.31-.72.52-1.03-.79.08-1.57.13-2.35.17v.02s-.33,0-.33,0h-.2s0,0,0,0h-.42s-.08-.24-.08-.24v.26s-.45,0-.45,0l-.03-.08c-.15.36-.23.89-.29,1.8h0c.02.62.02.63.05,1.08.04.35.09.74.1,1.1.17.14.45.4.62.77.17.38.15.79-.06,1.1-.16.25-.51.53-1.25.53-.02,0-.04,0-.06,0h-.07s-.09-.01-.13-.02c-.95-.13-1.84-.82-2.02-1.57-.1-.4.02-.78.32-1.05-.16-.99-.04-2.37.76-3.46.07-.1.16-.17.24-.26l-3.41-.25-.49-.07c-.2.37-.33.87-.41,1.53h0s0,.05,0,.05c-.03.25-.04.31-.06,1.03-.01.4-.02.73-.04,1.01.16.15.44.45.58.85.14.4.09.78-.14,1.04-.15.18-.44.37-.95.37-.13,0-.27-.01-.43-.04-.12-.03-.26-.07-.37-.1-.92-.33-1.64-1.13-1.67-1.86-.01-.35.14-.64.41-.82-.06-.96.19-2.24,1.06-3.16.07-.08.15-.15.23-.22l-3.38-.75-.4-.12c-.23.35-.4.88-.55,1.42h0c-.09.53-.09.55-.14.96-.02.33-.05.67-.09.98.14.17.36.48.46.85.1.4.02.75-.22.97-.13.12-.35.24-.7.24-.19,0-.43-.04-.71-.13-.12-.05-.25-.1-.35-.15-.89-.46-1.53-1.36-1.47-2.05.03-.32.21-.56.5-.7.02-.49.13-1.04.35-1.55.26-.62.66-1.1,1.16-1.43l-3.24-1.25-.36-.17c-.24.28-.45.73-.64,1.2v.03c-.07.19-.1.27-.24.88-.05.3-.1.62-.18.91.12.19.31.51.37.87.06.38-.04.71-.29.88-.11.08-.27.15-.5.15s-.54-.07-.93-.27c-.19-.11-.36-.22-.61-.44-.73-.65-1.11-1.5-.92-2.05.08-.25.27-.42.53-.48.07-.47.23-.97.51-1.42.3-.5.72-.87,1.2-1.09-1.16-.61-2.13-1.18-3.2-1.88v-2.53Z"/>
      <polygon class="cls-1" points="333.07 53.44 333.07 53.44 333.07 53.44 333.07 53.44"/>
      <polygon class="cls-1" points="333.83 61.03 333.83 61.03 333.83 61.03 333.83 61.03"/>
      <polygon class="cls-1" points="288.97 120.1 288.95 120.12 288.97 120.17 288.97 120.1"/>
      <rect class="cls-1" x="50.65" y="261.03" width="17.09" height="8.47"/>
      <polygon class="cls-1" points="494.67 26.44 505.03 4.48 505.84 2.76 483.5 2.76 484.3 4.48 494.67 26.44"/>
      <polygon class="cls-1" points="462.16 275.94 474.84 275.94 468.5 262.32 462.16 275.94"/>
      <polygon class="cls-1" points="508.81 56.41 521.44 29.63 509.58 4.48 508.81 2.85 508.04 4.48 496.17 29.63 508.81 56.41"/>
      <rect class="cls-1" x="548.26" y="261.23" width="19.22" height="20.51"/>
      <rect class="cls-1" x="89.85" y="261.23" width="19.22" height="20.51"/>
      <rect class="cls-1" x="132.63" y="261.03" width="17.09" height="8.27"/>
      <rect class="cls-1" x="418.69" y="261.03" width="17.09" height="8.27"/>
      <path class="cls-3" d="M269.75,118.65c-.27.45-.43.95-.51,1.42-.26.07-.45.24-.53.48-.19.55.19,1.4.92,2.05.25.22.43.33.61.44.39.2.69.27.93.27s.39-.07.5-.15c.25-.18.35-.5.29-.88-.06-.36-.25-.68-.37-.87.08-.28.13-.6.18-.91.14-.61.17-.69.24-.88v-.03c.2-.47.41-.92.65-1.2l.36.17,3.24,1.25c-.5.33-.9.81-1.16,1.43-.22.51-.32,1.06-.35,1.55-.29.14-.47.38-.5.7-.07.68.58,1.58,1.47,2.05.1.05.23.11.35.15.28.09.51.13.71.13.35,0,.56-.12.7-.24.24-.22.32-.58.22-.97-.09-.37-.32-.68-.46-.85.05-.31.07-.66.09-.98.05-.41.05-.42.14-.96h0c.15-.54.33-1.07.55-1.42l.4.12,3.38.75c-.08.07-.16.14-.23.22-.87.92-1.12,2.2-1.06,3.16-.28.18-.43.48-.41.82.03.73.74,1.53,1.67,1.86.1.04.24.07.37.1.16.03.3.04.43.04.52,0,.8-.19.95-.37.22-.27.27-.65.14-1.04-.14-.4-.42-.7-.58-.85.02-.28.03-.61.04-1.01.02-.72.03-.78.06-1.03v-.04s0,0,0,0c.07-.66.21-1.17.41-1.53l.49.07,3.41.25c-.08.09-.17.17-.24.26-.79,1.08-.91,2.46-.76,3.46-.3.28-.42.65-.32,1.05.18.75,1.07,1.44,2.02,1.57.04,0,.08,0,.13.01h.07s.04,0,.06,0c.74,0,1.09-.29,1.25-.53.21-.31.23-.72.06-1.1-.16-.37-.44-.62-.62-.77-.01-.36-.06-.75-.1-1.1-.03-.45-.03-.46-.05-1.08h0c.06-.91.14-1.44.29-1.8l.03.08h.46s0-.26,0-.26l.08.25h.42s0,0,0,0h.2s.34,0,.34,0v-.02c.77-.03,1.56-.09,2.35-.17-.21.31-.39.65-.52,1.03-.15.47-.28,1.81-.05,2.92-.31.35-.39.79-.22,1.22.29.74,1.22,1.29,2.16,1.29h0s.08,0,.12,0h.08c.79-.1,1.13-.45,1.28-.73.17-.34.15-.76-.06-1.14-.21-.39-.55-.62-.74-.74-.04-.31-.1-.68-.16-1.11-.03-.16-.07-.37-.14-1.04h0s0-.08,0-.08c-.07-.75-.04-1.35.1-1.83,1.29-.18,2.58-.43,3.86-.74-.18.35-.33.73-.42,1.14-.11.53-.11,1.93.23,3.04-.29.42-.32.89-.08,1.33.34.61,1.14,1.02,1.96,1.02.1,0,.2,0,.31-.02l.2-.03c.78-.2,1.08-.61,1.2-.92.14-.37.08-.79-.17-1.16-.23-.35-.56-.54-.76-.65-.08-.39-.2-.79-.32-1.15-.15-.6-.2-.79-.26-1.15-.14-.79-.16-1.43-.08-1.92,1.27-.36,2.54-.78,3.79-1.26-.15.38-.25.79-.3,1.23-.06.52.07,2.02.52,3.12-.25.48-.22.99.09,1.42.36.49,1.03.78,1.72.78.21,0,.41-.03.61-.08l.19-.06c.75-.31,1.01-.76,1.1-1.09.1-.4,0-.82-.28-1.17-.26-.33-.61-.5-.82-.58-.12-.38-.28-.77-.43-1.15-.04-.13-.16-.46-.35-1.08h0s-.02-.07-.02-.07c-.23-.82-.31-1.47-.27-1.98,1.24-.53,2.48-1.13,3.68-1.77-.13.49-.2,1.01-.19,1.56,0,.2.25,1.73.83,2.88-.21.49-.14,1.01.21,1.42.35.43.91.66,1.52.66.24,0,.48-.04.72-.11.11-.03.25-.1.37-.15.73-.41.94-.91.99-1.26.06-.41-.08-.83-.39-1.16-.3-.31-.65-.44-.88-.5-.15-.38-.35-.76-.54-1.13-.28-.62-.37-.82-.48-1.14-.31-.8-.46-1.47-.47-2.02,1.2-.7,2.37-1.47,3.51-2.28-.08.49-.1,1.01-.04,1.55.03.25.43,1.83,1.13,2.95-.16.57-.02,1.11.39,1.48.33.3.8.46,1.28.46.32,0,.65-.07.96-.21.11-.05.24-.13.36-.2.68-.5.83-1.04.85-1.41.02-.43-.17-.86-.49-1.14-.32-.28-.7-.37-.93-.41-.19-.38-.43-.76-.65-1.1q-.27-.48-.59-1.11v-.02c-.36-.85-.6-1.49-.67-2.01.83-.64,1.65-1.32,2.45-2.02l.24-.07h-.17c.26-.21.51-.44.76-.68-.03.51,0,1.04.12,1.58.05.26.6,1.83,1.41,2.9-.11.62.09,1.17.56,1.51.3.21.66.32,1.04.32.4,0,.82-.12,1.19-.35.1-.06.23-.16.33-.25.63-.61.73-1.19.71-1.57-.03-.43-.25-.84-.6-1.09-.38-.27-.78-.31-1.01-.31-.19-.31-.43-.66-.71-1.06-.11-.16-.23-.32-.67-1.01l-.03-.06c-.47-.77-.76-1.45-.87-2.01.77-.77,1.53-1.57,2.26-2.39l.04-.02h-.03c.25-.28.49-.56.73-.85.03.72.18,1.33.33,1.76,0,.01.72,1.62,1.65,2.65-.06.67.2,1.21.72,1.51.25.14.53.21.82.21.47,0,.97-.18,1.39-.52.09-.08.21-.19.3-.29.58-.71.61-1.33.54-1.72-.08-.43-.34-.81-.69-1.02-.37-.22-.76-.23-.99-.21-.27-.35-.57-.69-.85-.99q-.32-.39-.81-1.02l-.02-.03c-.52-.72-.86-1.36-1.05-1.95.13-.17.26-.34.39-.51h0s.14-.19.14-.19c0,0,0,0,0-.01l.16-.21h0c.23-.31.46-.62.68-.93h0c.57,0,1.28.14,2.26.38h0q.72.24,1.24.42c.46.19.88.36,1.27.48.18.62.58,1.04,1.15,1.16.1.02.2.03.31.03.64,0,1.3-.39,1.78-1.09.47-.81.41-1.43.27-1.82-.15-.43-.47-.77-.86-.93-.55-.22-1.05-.06-1.32.05-.74-.31-2.78-1.02-4.93-.44.81-1.23,1.57-2.51,2.27-3.79.58-.07,1.32-.01,2.22.17h.06c.36.08.56.13,1.26.31.48.15.91.27,1.3.36.25.61.72,1,1.3,1.05.04,0,.08,0,.12,0,.68,0,1.35-.46,1.76-1.26.35-.83.22-1.44.05-1.8-.19-.41-.55-.73-.95-.86-.56-.17-1.05.04-1.29.16-.92-.29-2.91-.74-4.88.01.64-1.29,1.22-2.62,1.75-3.96.57-.12,1.32-.13,2.23-.03h.06c.82.11,1.03.15,1.23.19.52.09.94.16,1.28.2.32.6.83.96,1.41.96.02,0,.04,0,.05,0,.7-.03,1.33-.56,1.66-1.41.24-.85.05-1.44-.16-1.79-.24-.39-.62-.68-1.03-.76-.57-.12-1.02.13-1.24.27-.88-.19-2.92-.47-4.78.46.47-1.34.88-2.7,1.24-4.07.54-.17,1.26-.25,2.11-.24h.06q.73.04,1.27.08c.46.06.91.11,1.32.13.35.5.83.79,1.34.79.07,0,.15,0,.22-.02.67-.11,1.21-.68,1.42-1.53.13-.85-.13-1.41-.37-1.73-.28-.37-.69-.62-1.1-.66-.57-.07-.98.21-1.18.37-.94-.12-2.94-.21-4.63.88.3-1.36.54-2.74.72-4.1.51-.22,1.21-.37,2.03-.43h.04s.04,0,.04,0c.58-.05,1.24-.05,1.26-.05.5,0,.91-.02,1.26-.03.38.46.84.71,1.31.71.11,0,.23-.01.34-.04.62-.15,1.07-.7,1.2-1.43,0-.04.01-.09.02-.14v-.07c.04-.86-.29-1.39-.56-1.68-.31-.34-.74-.54-1.15-.56-.55-.01-.93.29-1.12.47-.87-.03-2.88.05-4.44,1.28.13-1.37.2-2.74.22-4.1.46-.23,1.1-.41,1.96-.6h0s.03,0,.03,0q.7-.1,1.22-.16c.44-.02.88-.05,1.28-.11.38.35.8.55,1.22.55.16,0,.32-.03.48-.09.57-.22.94-.79.97-1.49,0-.04,0-.09,0-.13v-.07c-.13-1.48-1.23-2.08-1.95-2.05-.55.03-.88.36-1.04.56-.86.05-2.82.31-4.19,1.65-.04-1.35-.14-2.71-.29-4.04.42-.29,1.03-.54,1.82-.75h.01s.05-.01.05-.01c.34-.09.54-.14,1.17-.26.46-.07.87-.13,1.24-.22.37.29.77.44,1.14.44.21,0,.42-.05.6-.14.52-.27.81-.86.75-1.55l-.03-.2c-.31-1.43-1.44-1.94-2.15-1.83-.55.08-.82.43-.95.64-1.38.18-2.92.79-3.89,2-.14-.91-.31-1.81-.5-2.65l-.05-.27-.25.06h0s.23-.15.23-.15l-.05-.21-.25.06.23-.16v-.06s-.28,0-.28,0l.24-.12-.07-.28-.25.06s0,0,0,0l.23-.13-.24.06h0s.07-.05.07-.05v.02s.06-.04.08-.06l.06-.04h0c.38-.33.96-.63,1.72-.9l.06-.03c.44-.15.53-.18,1.08-.33.46-.13.82-.24,1.12-.34.37.24.75.37,1.1.37.26,0,.51-.07.72-.21.46-.31.66-.92.52-1.58,0-.04-.02-.09-.05-.19-.49-1.36-1.66-1.75-2.33-1.6-.52.12-.75.48-.86.7-.81.19-2.59.77-3.56,2.27l-1.28-3.74c.36-.35.93-.69,1.52-1.01l.05-.02c.24-.12.3-.15,1.03-.44.39-.13.77-.26,1.12-.41.33.16.65.25.93.25s.57-.09.79-.26c.39-.31.53-.85.37-1.43-.03-.1-.08-.24-.13-.35-.66-1.27-1.85-1.55-2.49-1.34-.49.16-.67.53-.75.76-.75.26-2.41.98-3.17,2.52l-1.78-3.54c.22-.29.57-.59,1.03-.89h-10.75c-.45.3-.71.73-.67,1.21.04.55.46,1.03,1.09,1.25.23.08.49.12.75.12.62,0,1.26-.24,1.62-.81.38-.05.82-.12,1.31-.2.74-.11.76-.12,1.26-.17h.01s.04,0,.04,0c1.25-.11,2.01.02,2.29.09l.1.17,1.51,3.08c-1.76-.83-3.75-.67-4.82-.5-.59-.26-1.16-.28-1.7-.06-.62.25-1.01.76-1,1.33,0,.59.41,1.1,1.05,1.36.5.19,1.59.33,2.28-.47.45-.02.93-.06,1.38-.11.87-.04.92-.05,1.32-.04h.03c1.04.06,1.76.16,2.27.33l.08.2,1.08,3.27c-1.6-.99-3.59-1.09-4.79-1.01-.55-.32-1.12-.4-1.69-.24-.67.19-1.12.68-1.18,1.27-.06.58.28,1.14.88,1.45.48.25,1.59.51,2.39-.28.4.02.85.04,1.36.07.75.04.79.04,1.29.08h.06c.98.12,1.71.3,2.24.56l.27,1.13h0s.25-.06.25-.06h0s-.23.14-.23.14c.17.8.32,1.62.45,2.44-1.46-1.17-3.47-1.49-4.74-1.51-.5-.37-1.06-.51-1.64-.4-.7.13-1.22.58-1.35,1.18-.12.57.15,1.16.7,1.53.44.3,1.49.67,2.39,0,.48.08.98.13,1.42.18.74.11.89.13,1.31.23h.05s0,0,0,0c.93.2,1.61.45,2.14.77.14,1.24.22,2.5.26,3.78-1.29-1.29-3.25-1.84-4.58-2-.46-.42-.99-.61-1.59-.57-.73.06-1.3.46-1.5,1.06-.18.56,0,1.16.51,1.59.4.35,1.41.82,2.4.24.47.12.95.22,1.38.31.66.17.68.17,1.31.36h0c.98.36,1.64.68,2.1,1.01-.01,1.28-.09,2.57-.21,3.85-1.18-1.5-3.13-2.2-4.36-2.48-.41-.47-.93-.72-1.53-.74-.72,0-1.36.34-1.63.92-.25.54-.13,1.16.32,1.64.37.4,1.35,1,2.42.46.38.14.81.3,1.31.48.11.04.71.24,1.28.5.9.39,1.53.78,1.97,1.2-.17,1.29-.41,2.59-.69,3.88-.97-1.55-2.79-2.5-4.08-2.94-.35-.51-.84-.81-1.44-.89-.73-.09-1.41.2-1.74.77-.31.52-.26,1.14.13,1.67.32.43,1.19,1.12,2.32.73.44.22.9.42,1.3.59q.63.31,1.23.63c.85.48,1.44.94,1.83,1.4-.33,1.29-.74,2.58-1.18,3.85-.81-1.74-2.58-2.83-3.73-3.36-.29-.56-.74-.91-1.34-1.05-.73-.17-1.44.06-1.84.6-.37.49-.39,1.12-.08,1.68.27.48,1.09,1.28,2.3.96.34.22.73.46,1.19.74.19.11.46.27,1.1.71l.05.04c.81.57,1.35,1.09,1.67,1.57-.5,1.28-1.07,2.54-1.68,3.77-.58-1.74-2.15-3.06-3.33-3.76-.22-.58-.63-.98-1.22-1.18-.76-.26-1.51-.09-1.97.44-.42.48-.48,1.17-.16,1.79.24.47.95,1.21,2.06,1.06.38.31.79.6,1.15.85.65.51.75.59,1.05.86l.04.03c.72.65,1.19,1.21,1.46,1.72-.67,1.24-1.41,2.45-2.18,3.63-.36-1.88-1.85-3.33-2.87-4.1-.15-.61-.51-1.06-1.07-1.32-.71-.33-1.51-.24-2.04.24-.49.45-.63,1.11-.38,1.77.18.49.77,1.28,1.87,1.28.02,0,.04,0,.07,0,.35.36.73.69,1.04.97q.5.5.96.98l.02.02c.66.81,1.04,1.39,1.24,1.88-.26.36-.52.72-.79,1.08h0c-.17.23-.35.46-.53.69-.61-.03-1.35-.23-2.21-.59l-.04-.02q-.65-.3-1.23-.59c-.39-.22-.82-.47-1.26-.68-.07-.25-.25-.74-.82-1.11-.66-.43-1.48-.44-2.08-.02-.54.37-.77.99-.63,1.65.14.63.77,1.53,1.94,1.53.03,0,.05,0,.08,0,1.02.76,2.96,1.68,4.96,1.41-.93,1.09-1.9,2.15-2.9,3.14-.6-.11-1.33-.4-2.15-.87l-.05-.02c-.68-.41-.92-.57-1.11-.71-.43-.29-.81-.54-1.16-.76-.03-.23-.14-.77-.7-1.23-.63-.52-1.45-.63-2.08-.29-.55.3-.83.87-.76,1.54.08.66.65,1.65,1.89,1.73,1.08,1.01,2.83,2,4.67,2-1.01.92-2.05,1.8-3.12,2.62-.71-.22-1.43-.69-2.03-1.08l-.03-.02q-.53-.4-1.07-.84c-.33-.3-.7-.63-1.08-.94-.02-.25-.1-.75-.57-1.23-.58-.59-1.39-.8-2.05-.52-.55.23-.88.75-.87,1.39,0,.66.48,1.69,1.71,1.92.97,1.1,2.59,2.27,4.38,2.5-1.08.76-2.19,1.48-3.32,2.14-.57-.24-1.21-.67-1.88-1.27l-.04-.05c-.32-.28-.46-.42-.96-.94-.29-.32-.62-.69-.97-1.04,0-.24-.02-.74-.43-1.26-.52-.66-1.31-.95-2-.75-.56.17-.92.63-.98,1.24-.06.64.3,1.71,1.5,2.08.85,1.18,2.34,2.49,4.07,2.94-1.14.6-2.3,1.16-3.48,1.66-.54-.3-1.13-.8-1.76-1.5l-.04-.03c-.43-.49-.69-.82-.84-1-.27-.37-.56-.76-.85-1.13.03-.24.05-.72-.3-1.27-.45-.71-1.23-1.09-1.93-.96-.55.1-.94.51-1.06,1.08-.12.61.12,1.68,1.25,2.19.71,1.24,2.04,2.7,3.72,3.34-1.17.44-2.37.83-3.56,1.16-.51-.35-1.04-.91-1.58-1.62l-.03-.06c-.26-.35-.35-.48-.74-1.1-.23-.39-.47-.8-.73-1.19.06-.23.12-.69-.17-1.27-.38-.76-1.12-1.23-1.83-1.17-.53.04-.95.39-1.12.92-.18.57-.05,1.63.99,2.27.56,1.13,1.57,2.42,2.18,2.93.37.31.75.56,1.15.77-1.19.28-2.4.5-3.59.67-.47-.4-.94-1.01-1.42-1.81l-.03-.04c-.38-.66-.52-.95-.61-1.13-.24-.46-.43-.85-.61-1.19.08-.2.22-.66-.03-1.3-.31-.8-1-1.35-1.72-1.37-.55-.01-.95.26-1.17.76-.24.54-.22,1.61.78,2.36.44,1.31,1.42,2.95,2.88,3.94-.72.07-1.45.11-2.17.14h0s-.39.02-.39.02h0s-.07,0-.07,0h0s0,0,0,0h-.06s.07.24.07.24v.02s-.11-.25-.11-.25v.26h0l-.07-.25v.26s-.1-.25-.1-.25v.26s-.11-.25-.11-.25v.26s-.09-.25-.09-.25v.26s-.09-.25-.09-.25h-.07s0,.26,0,.26l-.07-.26v.26s-.07-.26-.07-.26v.19s-.07-.19-.07-.19h-.11c-.53-.57-.94-1.36-1.23-1.9v-.03q-.29-.61-.52-1.2c-.14-.42-.3-.86-.47-1.28.1-.2.25-.61.08-1.21-.22-.82-.88-1.45-1.59-1.55-.51-.07-.94.14-1.2.58-.29.49-.38,1.51.51,2.36.31,1.18.99,2.56,1.52,3.23.28.36.59.67.91.95l-3.49-.33c-.38-.49-.72-1.17-1.02-1.97l-.02-.07c-.14-.37-.16-.44-.38-1.22-.14-.48-.25-.88-.36-1.24.12-.17.34-.56.23-1.2-.14-.84-.73-1.55-1.44-1.73-.48-.12-.92.03-1.21.4-.34.44-.54,1.43.28,2.39.16,1.29.77,3.01,1.96,4.31l-3.38-.82c-.4-.66-.65-1.5-.82-2.07v-.03q-.15-.62-.26-1.23c-.06-.43-.12-.87-.2-1.28.23-.29.34-.65.31-1.08-.07-1-.73-1.72-1.34-1.92-.47-.15-.92-.02-1.23.35-.28.35-.57,1.22.12,2.25.03,1.25.44,2.97,1.47,4.38l-3.2-1.31c-.34-.71-.5-1.54-.61-2.11h0s0-.05,0-.05c-.06-.39-.07-.52-.13-1.21-.02-.41-.03-.84-.07-1.26.26-.24.4-.57.42-1,.03-1-.56-1.81-1.16-2.09-.44-.2-.87-.14-1.21.16-.3.28-.71,1.09-.11,2.22-.08,1.16.12,2.85.98,4.37-1.05-.57-1.95-1.1-2.98-1.78-.07-.18-.13-.37-.17-.56v2.53c1.07.7,2.04,1.27,3.2,1.88-.49.22-.9.59-1.2,1.09ZM269.91,121.81s0,0,0,0c0,0,0,0,0,0h0ZM335.54,61.06h0s0,0,0,0h0ZM335.52,60.97h0s0,0,0,0h0ZM335.43,60.61h0s0,0,0,0h0ZM335.38,60.38h0s0,0,0,0h0ZM335.32,60.16h0s0,0,0,0h0ZM333.07,53.44s0,0,0,0h0s0,0,0,0ZM333.83,61.03h0s0,0,0,0h0ZM333.88,61.27h0s0,0,0,0h0ZM328.17,68.41s0,0,0,0h0s0,0,0,0ZM328.13,73.59s0,0,0-.01h0s0,0,0,.01ZM314.37,111.52s0,0,0,0c0,0,0,0,0,0h0ZM288.97,120.1v.06s-.01-.05-.01-.05h.01Z"/>
      <path class="cls-5" d="M477.56,2.76l-.81,1.71-7.75,16.42,1.51,3.17,9.24-19.59.77-1.63.77,1.63,11.87,25.15-9.94,21.07,1.51,3.17,9.94-21.06,12.64,26.78-9.87,20.91,1.51,3.17,9.86-20.89,9.82,20.8,1.51-3.18-9.82-20.81,12.64-26.78,9.85,20.86,1.51-3.18-9.85-20.87,11.87-25.15.77-1.63.77,1.63,9.1,19.3,1.51-3.18-7.6-16.11-.81-1.71h16.86L558.23,0h-19.47s-.45,0-.45,0h-2.89s-24.95,0-24.95,0h0s-.45,0-.45,0h-2.89s-24.95,0-24.95,0h0s-.45,0-.45,0h-2.89s-19.83,0-19.83,0l1.32,2.76h17.21ZM534.12,2.76l-.81,1.71-10.36,21.96-10.36-21.96-.81-1.71h22.34ZM508.04,4.48l.77-1.63.77,1.63,11.87,25.15-12.64,26.78-12.64-26.78,11.87-25.15ZM505.84,2.76l-.81,1.71-10.36,21.96-10.36-21.96-.81-1.71h22.34Z"/>
      <polygon points="440.18 239.05 494.13 239.05 615.37 0 561.39 0 508.81 110.98 455.86 0 401.58 0 481.5 160.16 459.49 202.19 409.73 202.19 390.87 239.05 440.18 239.05"/>
      <polygon points="380.13 202.19 361.28 239.05 366.12 239.05 384.98 202.19 380.13 202.19"/>
      <polygon points="364.02 202.19 344.71 239.05 356.26 239.05 375.11 202.19 364.02 202.19"/>
      <polygon points="385.85 239.05 404.71 202.19 399.86 202.19 381.01 239.05 385.85 239.05"/>
      <polygon points="394.84 202.19 390 202.19 371.14 239.05 375.99 239.05 394.84 202.19"/>
      <polygon class="cls-4" points="380.13 202.19 375.11 202.19 375.11 202.19 356.26 239.05 356.26 239.05 361.28 239.05 361.28 239.05 380.13 202.19 380.13 202.19"/>
      <polygon class="cls-4" points="390 202.19 384.98 202.19 384.98 202.19 366.12 239.05 366.12 239.05 371.14 239.05 371.14 239.05 390 202.19 390 202.19"/>
      <polygon class="cls-4" points="375.99 239.05 381.01 239.05 381.01 239.05 399.86 202.19 399.86 202.19 394.84 202.19 394.84 202.19 375.99 239.05 375.99 239.05"/>
      <polygon class="cls-4" points="385.85 239.05 390.87 239.05 390.87 239.05 409.73 202.19 409.73 202.19 404.71 202.19 404.71 202.19 385.85 239.05 385.85 239.05"/>
      <polygon points="9.8 267.92 9.8 260.83 27.24 260.83 27.24 264.75 34.87 264.75 34.87 259.35 29.66 254.14 7.37 254.14 2.17 259.35 2.17 269.85 7.07 274.75 27.43 274.75 27.43 282.14 9.6 282.14 9.6 277.98 1.97 277.98 1.97 283.62 7.17 288.82 29.86 288.82 35.07 283.62 35.07 272.82 30.16 267.92 9.8 267.92"/>
      <path d="M43.01,254.14v34.68h7.63v-12.43h19.52l5.2-5.2v-11.84l-5.2-5.2h-27.15ZM67.74,269.5h-17.09v-8.47h17.09v8.47Z"/>
      <path d="M87.42,254.14l-5.2,5.2v24.28l5.2,5.2h24.08l5.2-5.2v-24.28l-5.2-5.2h-24.08ZM109.07,281.74h-19.22v-20.51h19.22v20.51Z"/>
      <path d="M152.15,276.19l5.2-5.2v-11.64l-5.2-5.2h-27.15v34.68h7.63v-12.63h11.39l6.59,12.63h8.08l-6.64-12.63h.1ZM149.72,269.3h-17.09v-8.27h17.09v8.27Z"/>
      <polygon points="162.27 261.23 175.3 261.23 175.3 288.82 182.93 288.82 182.93 261.23 195.91 261.23 195.91 254.14 162.27 254.14 162.27 261.23"/>
      <polygon points="208.42 267.92 208.42 260.83 225.86 260.83 225.86 264.75 233.49 264.75 233.49 259.35 228.28 254.14 205.99 254.14 200.79 259.35 200.79 269.85 205.7 274.75 226.05 274.75 226.05 282.14 208.22 282.14 208.22 277.98 200.59 277.98 200.59 283.62 205.79 288.82 228.48 288.82 233.69 283.62 233.69 272.82 228.78 267.92 208.42 267.92"/>
      <polygon points="258.43 288.82 266.07 288.82 266.07 275.2 283.7 275.2 283.7 268.41 266.07 268.41 266.07 260.98 288.51 260.98 288.51 254.14 258.43 254.14 258.43 288.82"/>
      <polygon points="301.71 274.85 318.95 274.85 318.95 268.07 301.71 268.07 301.71 260.98 324.4 260.98 324.4 254.14 294.07 254.14 294.07 288.82 324.59 288.82 324.59 281.99 301.71 281.99 301.71 274.85"/>
      <path d="M331.35,254.14v34.68h28.93l5.2-5.2v-24.28l-5.2-5.2h-28.93ZM357.86,281.74h-18.87v-20.51h18.87v20.51Z"/>
      <polygon points="381.41 274.85 398.65 274.85 398.65 268.07 381.41 268.07 381.41 260.98 404.1 260.98 404.1 254.14 373.78 254.14 373.78 288.82 404.3 288.82 404.3 281.99 381.41 281.99 381.41 274.85"/>
      <path d="M438.21,276.19l5.2-5.2v-11.64l-5.2-5.2h-27.15v34.68h7.63v-12.63h11.39l6.59,12.63h8.08l-6.64-12.63h.1ZM435.78,269.3h-17.09v-8.27h17.09v8.27Z"/>
      <path d="M465.03,254.14l-16.99,34.68h8.13l2.82-6.04h19.02l2.82,6.04h8.32l-16.94-34.68h-7.18ZM462.16,275.94l6.34-13.62,6.34,13.62h-12.68Z"/>
      <polygon points="485.11 261.23 498.14 261.23 498.14 288.82 505.77 288.82 505.77 261.23 518.75 261.23 518.75 254.14 485.11 254.14 485.11 261.23"/>
      <rect x="524.62" y="254.14" width="7.63" height="34.68"/>
      <path d="M545.83,254.14l-5.2,5.2v24.28l5.2,5.2h24.08l5.2-5.2v-24.28l-5.2-5.2h-24.08ZM567.48,281.74h-19.22v-20.51h19.22v20.51Z"/>
      <polygon points="610.06 254.14 610.06 277.18 590.54 254.14 583.4 254.14 583.4 288.82 590.69 288.82 590.69 265.74 610.3 288.82 617.34 288.82 617.34 254.14 610.06 254.14"/>
      <polygon points="92.56 239.06 213.82 0 159.84 0 107.24 110.98 54.31 0 0 0 79.92 160.16 38.6 239.06 92.56 239.06"/>
      <polygon class="cls-2" points="103.01 47.65 103.01 48.31 111.47 48.31 111.47 47.65 111.47 43.28 117.53 43.28 117.53 38.01 111.47 38.01 111.47 32.07 117.53 32.07 117.53 26.8 111.47 26.8 111.47 20.86 117.53 20.86 117.53 15.59 111.47 15.59 111.47 9.64 117.53 9.64 117.53 4.38 111.47 4.38 111.47 .66 111.47 0 103.01 0 103.01 .66 103.01 4.38 96.95 4.38 96.95 9.64 103.01 9.64 103.01 15.59 96.95 15.59 96.95 20.86 103.01 20.86 103.01 26.8 96.95 26.8 96.95 32.07 103.01 32.07 103.01 38.01 96.95 38.01 96.95 43.28 103.01 43.28 103.01 47.65"/>
      <path d="M401.43,146.16V31.41L370.03,0h-124.66l-31.42,31.41v114.75l31.42,31.42h124.66l31.4-31.42ZM351.93,133.52h-88.46V44.05h88.46v89.47Z"/>
    </g>
  </g>
</svg>