<?xml version="1.0" encoding="UTF-8"?>
<svg id="Layer_2" data-name="Layer 2" xmlns="http://www.w3.org/2000/svg" viewBox="0 0 349.04 171.61">
  <defs>
    <style>
      .cls-1 {
        fill: none;
      }

      .cls-2 {
        fill: #b12126;
      }

      .cls-3 {
        fill: #2a2b79;
      }

      .cls-4 {
        fill: #fff;
      }
    </style>
  </defs>
  <g id="Layer_1-2" data-name="Layer 1">
    <g>
      <rect class="cls-3" x="0" y="0" width="349.04" height="171.61" rx="9.39" ry="9.39"/>
      <g>
        <g>
          <path class="cls-2" d="M16.82,153.75v-2.91h3.93v2.14h9.18v-3.8h-10.48l-2.52-2.52v-5.41l2.68-2.68h11.48l2.68,2.68v2.78h-3.93v-2.02h-8.98v3.65h10.48l2.52,2.52v5.56l-2.68,2.68h-11.68l-2.68-2.68Z"/>
          <path class="cls-2" d="M37.95,138.58h13.98l2.68,2.68v6.1l-2.68,2.68h-10.05v6.4h-3.93v-17.85ZM50.67,146.48v-4.36h-8.8v4.36h8.8Z"/>
          <path class="cls-2" d="M58.13,153.75v-12.5l2.68-2.68h12.39l2.68,2.68v12.5l-2.68,2.68h-12.39l-2.68-2.68ZM71.95,152.78v-10.56h-9.89v10.56h9.89Z"/>
          <path class="cls-2" d="M80.15,138.58h13.98l2.68,2.68v5.99l-2.68,2.68h-.05l3.42,6.5h-4.16l-3.39-6.5h-5.86v6.5h-3.93v-17.85ZM92.88,146.38v-4.26h-8.8v4.26h8.8Z"/>
          <path class="cls-2" d="M106.04,142.22h-6.71v-3.65h17.32v3.65h-6.68v14.2h-3.93v-14.2Z"/>
          <path class="cls-2" d="M119.06,153.75v-2.91h3.93v2.14h9.18v-3.8h-10.48l-2.52-2.52v-5.41l2.68-2.68h11.48l2.68,2.68v2.78h-3.93v-2.02h-8.98v3.65h10.48l2.52,2.52v5.56l-2.68,2.68h-11.68l-2.68-2.68Z"/>
          <path class="cls-2" d="M148.84,138.58h15.48v3.52h-11.55v3.82h9.08v3.49h-9.08v7.01h-3.93v-17.85Z"/>
          <path class="cls-2" d="M167.18,138.58h15.61v3.52h-11.68v3.65h8.87v3.49h-8.87v3.67h11.78v3.52h-15.71v-17.85Z"/>
          <path class="cls-2" d="M186.37,138.58h14.89l2.68,2.68v12.5l-2.68,2.68h-14.89v-17.85ZM200.01,152.78v-10.56h-9.72v10.56h9.72Z"/>
          <path class="cls-2" d="M208.21,138.58h15.61v3.52h-11.68v3.65h8.87v3.49h-8.87v3.67h11.78v3.52h-15.71v-17.85Z"/>
          <path class="cls-2" d="M227.4,138.58h13.98l2.68,2.68v5.99l-2.68,2.68h-.05l3.42,6.5h-4.16l-3.39-6.5h-5.86v6.5h-3.93v-17.85ZM240.13,146.38v-4.26h-8.8v4.26h8.8Z"/>
          <path class="cls-2" d="M255.18,138.58h3.7l8.72,17.85h-4.28l-1.45-3.11h-9.79l-1.45,3.11h-4.18l8.75-17.85ZM260.23,149.8l-3.26-7.01-3.26,7.01h6.53Z"/>
          <path class="cls-2" d="M272.23,142.22h-6.71v-3.65h17.32v3.65h-6.68v14.2h-3.93v-14.2Z"/>
          <path class="cls-2" d="M285.86,138.58h3.93v17.85h-3.93v-17.85Z"/>
          <path class="cls-2" d="M294.1,153.75v-12.5l2.68-2.68h12.39l2.68,2.68v12.5l-2.68,2.68h-12.39l-2.68-2.68ZM307.92,152.78v-10.56h-9.89v10.56h9.89Z"/>
          <path class="cls-2" d="M316.12,138.58h3.67l10.05,11.86v-11.86h3.75v17.85h-3.62l-10.1-11.88v11.88h-3.75v-17.85Z"/>
        </g>
        <g>
          <g>
            <path class="cls-4" d="M194.68,46.41l-.42.46.83.75c-.71,0-1.42.02-2.13.05l-1.23-1.12-.42.46.77.7c-.67.04-1.33.09-1.99.15l-1.45-1.07-.37.5.9.66c-.71.08-1.41.17-2.11.27l-1.34-.98-.37.5.84.62c-.67.11-1.33.23-1.98.36l-1.54-.9-.32.54.95.56c-.69.15-1.37.32-2.05.49l-1.44-.84-.32.54.91.53c-.58.16-1.16.33-1.74.52-.07.02-.15.05-.22.07l-1.59-.72-.26.57.98.45c-.67.23-1.32.47-1.97.72l-1.52-.69-.26.57.97.44c-.65.27-1.29.54-1.92.83l-1.62-.53-.19.59,1,.33c-.62.3-1.24.61-1.84.94l-1.6-.53-.19.59,1.05.35c-.63.35-1.24.72-1.84,1.1l-1.64-.34-.13.61,1.02.21c-.56.37-1.11.75-1.64,1.15l-1.8-.14-.05.62,1.1.09c-.57.44-1.11.88-1.64,1.34l-1.65-.13-.05.62,1.05.09c-.52.47-1.03.96-1.51,1.45l-1.69.09.03.62,1.03-.05c-.47.5-.92,1.02-1.35,1.54l-1.69.09.03.62,1.14-.06c-.45.58-.88,1.17-1.29,1.77l-1.62.32.12.61,1.02-.2c-.26.41-.51.83-.75,1.26-.1.18-.2.36-.3.54l-1.6.59.21.58.97-.35c-.31.62-.59,1.24-.84,1.87l-1.58.58.21.58,1.07-.39c-.26.7-.48,1.4-.67,2.1l-1.41.81.31.54.89-.51c-.16.68-.29,1.37-.39,2.06l-1.29,1.08.4.48.78-.65c-.07.67-.12,1.35-.14,2.03l-1.3,1.09.4.48,1.03-.86h.16l.87,1.05.48-.4-1.18-1.42c.02-.7.07-1.4.16-2.1l.81.97.48-.4-1.18-1.41c.1-.68.24-1.36.4-2.03l.63,1.1.54-.31-.94-1.65c.17-.62.37-1.24.6-1.85l.39,1.07.58-.21-.64-1.74c.26-.64.55-1.27.86-1.9l.43,1.17.58-.21-.63-1.71c.08-.15.16-.29.24-.44.26-.46.53-.91.82-1.36l.24,1.23.61-.12-.37-1.85c.37-.54.75-1.06,1.16-1.58l.06,1.14.62-.03-.1-1.84c.44-.53.9-1.05,1.39-1.57l.06,1.25.62-.03-.09-1.82c.48-.48.98-.96,1.5-1.42l-.1,1.23.62.05.15-1.87c.51-.43,1.03-.86,1.57-1.27l-.09,1.18.62.05.14-1.73c.57-.42,1.16-.83,1.76-1.22l-.25,1.22.61.13.37-1.82c.57-.36,1.14-.7,1.73-1.03l-.37,1.12.59.19.58-1.76c.61-.33,1.22-.64,1.85-.94l-.39,1.17.59.19.57-1.73c.62-.28,1.26-.56,1.9-.82l-.5,1.11.57.26.77-1.7c.63-.24,1.28-.48,1.93-.7l-.5,1.1.57.26.74-1.62c.06-.02.12-.04.18-.06.61-.19,1.22-.37,1.84-.54l-.63,1.06.54.32.95-1.61c.65-.17,1.31-.33,1.98-.47l-.6,1.02.54.32.89-1.51c.7-.14,1.4-.27,2.1-.38l-.74,1,.5.37,1.11-1.5c.67-.1,1.33-.18,2.01-.25l-.69.94.5.37,1.03-1.4c.71-.07,1.43-.12,2.14-.16l-.84.93.46.42,1.25-1.38c.67-.03,1.34-.04,2.02-.05l-.78.86.46.42,1.4-1.55-1.55-1.4Z"/>
            <path class="cls-4" d="M180.77,19.12l-.4-.48-.78.65c.07-.67.12-1.35.14-2.03l1.3-1.09-.4-.48-1.03.86h-.16l-.87-1.05-.48.4,1.18,1.42c-.02.7-.07,1.4-.16,2.1l-.81-.97-.48.4,1.18,1.41c-.1.68-.24,1.36-.4,2.03l-.63-1.1-.54.31.94,1.65c-.17.62-.37,1.24-.6,1.85l-.39-1.07-.58.21.64,1.74c-.26.64-.55,1.27-.86,1.9l-.43-1.17-.58.21.63,1.71c-.08.15-.16.29-.24.44-.26.46-.53.91-.82,1.36l-.24-1.23-.61.12.37,1.85c-.37.54-.75,1.06-1.16,1.58l-.06-1.14-.62.03.1,1.84c-.44.53-.9,1.05-1.39,1.57l-.06-1.25-.62.03.09,1.82c-.48.48-.98.96-1.5,1.42l.1-1.23-.62-.05-.15,1.87c-.51.43-1.03.86-1.57,1.27l.09-1.18-.62-.05-.14,1.73c-.57.42-1.16.83-1.76,1.22l.25-1.22-.61-.13-.37,1.82c-.57.36-1.14.7-1.73,1.03l.37-1.12-.59-.19-.58,1.76c-.61.33-1.22.64-1.85.94l.39-1.17-.59-.19-.57,1.73c-.62.28-1.26.56-1.9.82l.5-1.11-.57-.26-.77,1.7c-.63.24-1.28.48-1.93.7l.5-1.1-.57-.26-.74,1.62c-.06.02-.12.04-.18.06-.61.19-1.22.37-1.84.54l.63-1.06-.54-.32-.95,1.61c-.65.17-1.31.33-1.98.47l.6-1.02-.54-.32-.89,1.51c-.7.14-1.4.27-2.1.38l.74-1-.5-.37-1.11,1.5c-.67.1-1.33.18-2.01.25l.69-.94-.5-.37-1.03,1.4c-.71.07-1.43.12-2.14.16l.84-.93-.46-.42-1.25,1.38c-.67.03-1.34.04-2.02.05l.78-.86-.46-.42-1.4,1.55,1.55,1.4.42-.46-.83-.75c.71,0,1.42-.02,2.13-.05l1.23,1.12.42-.46-.77-.7c.67-.04,1.33-.09,1.99-.15l1.45,1.07.37-.5-.9-.66c.71-.08,1.41-.17,2.11-.27l1.34.98.37-.5-.84-.62c.67-.11,1.33-.23,1.98-.36l1.54.9.32-.54-.95-.56c.69-.15,1.37-.32,2.05-.49l1.44.84.32-.54-.91-.53c.58-.16,1.16-.33,1.74-.52.07-.02.15-.05.22-.07l1.59.72.26-.57-.98-.45c.67-.23,1.32-.47,1.97-.72l1.52.69.26-.57-.97-.44c.65-.27,1.29-.54,1.92-.83l1.62.53.19-.59-1-.33c.62-.3,1.24-.61,1.84-.94l1.6.53.19-.59-1.05-.35c.63-.35,1.24-.72,1.84-1.1l1.64.34.13-.61-1.02-.21c.56-.37,1.11-.75,1.64-1.15l1.8.14.05-.62-1.1-.09c.57-.44,1.11-.88,1.64-1.34l1.65.13.05-.62-1.05-.09c.52-.47,1.03-.96,1.51-1.45l1.69-.09-.03-.62-1.03.05c.47-.5.92-1.02,1.35-1.54l1.69-.09-.03-.62-1.14.06c.45-.58.88-1.17,1.29-1.77l1.62-.32-.12-.61-1.02.2c.26-.41.51-.83.75-1.26.1-.18.2-.36.3-.54l1.6-.59-.21-.58-.97.35c.31-.62.59-1.24.84-1.87l1.58-.58-.21-.58-1.07.39c.26-.7.48-1.4.67-2.1l1.41-.81-.31-.54-.89.51c.16-.68.29-1.37.39-2.06l1.29-1.08Z"/>
            <path class="cls-4" d="M128.47,86.15V30.43l15.26-15.25h60.53l15.24,15.25v55.72l-15.24,15.26h-60.53l-15.26-15.26ZM195.46,80.01v-43.44h-42.95v43.44h42.95Z"/>
          </g>
          <g>
            <polygon class="cls-4" points="223.89 113.35 214.74 131.25 217.09 131.25 226.25 113.35 223.89 113.35"/>
            <polygon class="cls-4" points="228.68 113.35 219.53 131.25 221.88 131.25 231.04 113.35 228.68 113.35"/>
            <polygon class="cls-4" points="219.1 113.35 209.95 131.25 212.3 131.25 221.46 113.35 219.1 113.35"/>
            <polygon class="cls-4" points="211.28 113.35 201.9 131.25 207.51 131.25 216.67 113.35 211.28 113.35"/>
            <polygon class="cls-4" points="307.11 15.18 281.58 69.07 255.87 15.18 229.52 15.18 268.32 92.94 257.63 113.35 233.47 113.35 224.32 131.25 248.26 131.25 274.45 131.25 333.32 15.18 307.11 15.18"/>
          </g>
          <g>
            <g>
              <polygon class="cls-1" points="40.25 44.11 46.39 57.12 52.52 44.11 46.39 31.11 40.25 44.11"/>
              <polygon class="cls-1" points="53.63 17.35 53.25 16.56 52.88 17.35 47.12 29.56 53.25 42.57 59.39 29.56 53.63 17.35"/>
              <polygon class="cls-1" points="39.9 17.35 39.52 16.56 39.15 17.35 33.39 29.56 39.52 42.57 45.66 29.56 39.9 17.35"/>
              <polygon class="cls-1" points="60.12 28.01 65.15 17.35 65.54 16.52 54.7 16.52 55.09 17.35 60.12 28.01"/>
              <polygon class="cls-1" points="73.85 28.01 78.88 17.35 79.28 16.52 68.43 16.52 68.82 17.35 73.85 28.01"/>
              <polygon class="cls-1" points="53.98 44.11 60.12 57.12 66.26 44.11 60.12 31.11 53.98 44.11"/>
              <polygon class="cls-1" points="94.45 16.56 94.08 17.35 88.31 29.56 94.45 42.57 100.59 29.56 94.82 17.35 94.45 16.56"/>
              <polygon class="cls-1" points="81.45 44.11 87.58 57.12 93.72 44.11 87.58 31.11 81.45 44.11"/>
              <polygon class="cls-1" points="67.72 44.11 73.85 57.12 79.99 44.11 73.85 31.11 67.72 44.11"/>
              <polygon class="cls-1" points="81.09 17.35 80.72 16.56 80.34 17.35 74.58 29.56 80.72 42.57 86.85 29.56 81.09 17.35"/>
              <polygon class="cls-1" points="67.36 17.35 66.99 16.56 66.61 17.35 60.85 29.56 66.99 42.57 73.12 29.56 67.36 17.35"/>
              <path class="cls-4" d="M108.77,15.18h-1.4l-.03.06-.5,1.06-.5,1.06-5.03,10.66-5.03-10.66-.5-1.06-.5-1.06-.03-.06h-1.62l-.03.06-.5,1.06-.5,1.06-5.03,10.66-5.03-10.66-.39-.83h7.69s.65-1.34.65-1.34h-47.69l.65,1.34h8.36l-.39.83-5.03,10.66-5.03-10.66-.5-1.06-.5-1.06-.03-.06h-1.62l-.03.06-.5,1.06-.5,1.06-5.03,10.66-5.03-10.66-.5-1.06-.5-1.06-.03-.06h-1.45s.52,1.11.52,1.11l.5,1.06,5.76,12.21.73,1.55,6.14,13,.73,1.55,6.14,13,.73,1.55.73-1.55,6.14-13,6.14,13,.73,1.55.73-1.55,6.14-13,6.14,13,.73,1.55.73-1.55,6.14-13,6.14,13,.73,1.55.73-1.55,6.14-13,.73-1.55,6.14-13,.73-1.55,5.76-12.21.5-1.06.52-1.1h-.05ZM79.28,16.52l-.39.83-5.03,10.66-5.03-10.66-.39-.83h10.85ZM65.54,16.52l-.39.83-5.03,10.66-5.03-10.66-.39-.83h10.85ZM33.39,29.56l5.76-12.21.37-.79.37.79,5.76,12.21-6.14,13-6.14-13ZM46.39,57.12l-6.14-13,6.14-13,6.14,13-6.14,13ZM47.12,29.56l5.76-12.21.37-.79.37.79,5.76,12.21-6.14,13-6.14-13ZM60.12,57.12l-6.14-13,6.14-13,6.14,13-6.14,13ZM60.85,29.56l5.76-12.21.37-.79.37.79,5.76,12.21-6.14,13-6.14-13ZM73.85,57.12l-6.14-13,6.14-13,6.14,13-6.14,13ZM74.58,29.56l5.76-12.21.37-.79.37.79,5.76,12.21-6.14,13-6.14-13ZM87.58,57.12l-6.14-13,6.14-13,6.14,13-6.14,13ZM94.45,42.57l-6.14-13,5.76-12.21.37-.79.37.79,5.76,12.21-6.14,13Z"/>
            </g>
            <path class="cls-4" d="M53.45,92.94L14.64,15.18h26.37l25.7,53.89,25.54-53.89h26.21l-58.88,116.07h-26.2l20.06-38.31Z"/>
          </g>
          <polygon class="cls-4" points="283.84 15.18 281.58 46.52 279.33 15.18 283.84 15.18 283.84 15.18"/>
          <path class="cls-4" d="M275.87,37.23c2.87-1.19,6.99-1.24,9.99-.48.49.13.96.27,1.43.48-.47.21-.94.35-1.43.48-2.99.75-7.12.71-9.99-.48h0Z"/>
          <path class="cls-4" d="M275.87,25.9c2.87-1.19,6.99-1.24,9.99-.48.49.13.96.27,1.43.48-.47.21-.94.35-1.43.48-2.99.75-7.12.71-9.99-.48h0Z"/>
          <path class="cls-4" d="M275.87,31.57c2.87-1.19,6.99-1.24,9.99-.48.49.13.96.27,1.43.48-.47.21-.94.35-1.43.48-2.99.75-7.12.71-9.99-.48h0Z"/>
          <path class="cls-4" d="M275.87,20.23c2.87-1.19,6.99-1.24,9.99-.48.49.13.96.27,1.43.48-.47.21-.94.35-1.43.48-2.99.75-7.12.71-9.99-.48h0Z"/>
        </g>
      </g>
    </g>
  </g>
</svg>